<svg width="32" height="32" viewBox="0 0 32 32" fill="none" xmlns="http://www.w3.org/2000/svg">
<rect width="32" height="32" rx="16" fill="#FFEA03"/>
<path d="M20.0576 21H12.7685V19.9424L15.7435 16.9217C16.2964 16.3638 16.7605 15.8667 17.1359 15.4304C17.5163 14.9942 17.8054 14.5656 18.0033 14.1446C18.2011 13.7185 18.3 13.2518 18.3 12.7446C18.3 12.1156 18.1123 11.6362 17.737 11.3065C17.3667 10.9717 16.8772 10.8043 16.2685 10.8043C15.7359 10.8043 15.2641 10.8957 14.8533 11.0783C14.4424 11.2609 14.0214 11.5196 13.5902 11.8543L12.913 11.0022C13.2072 10.7536 13.5268 10.533 13.8717 10.3402C14.2217 10.1475 14.5946 9.99529 14.9902 9.8837C15.3909 9.7721 15.817 9.7163 16.2685 9.7163C16.9533 9.7163 17.5442 9.83551 18.0413 10.0739C18.5384 10.3123 18.9214 10.6522 19.1902 11.0935C19.4641 11.5348 19.6011 12.0598 19.6011 12.6685C19.6011 13.2569 19.4844 13.8047 19.2511 14.312C19.0178 14.8141 18.6906 15.3138 18.2696 15.8109C17.8486 16.3029 17.3565 16.8254 16.7935 17.3783L14.3739 19.7902V19.8435H20.0576V21Z" fill="#111111"/>
</svg>
