<svg width="256" height="256" viewBox="0 0 256 256" fill="none" xmlns="http://www.w3.org/2000/svg">
<rect width="256" height="256" rx="128" fill="#FFEA03"/>
<path d="M157.188 173H97.3125V164.312L121.75 139.5C126.292 134.917 130.104 130.833 133.188 127.25C136.312 123.667 138.688 120.146 140.312 116.688C141.938 113.188 142.75 109.354 142.75 105.188C142.75 100.021 141.208 96.0833 138.125 93.375C135.083 90.625 131.062 89.25 126.062 89.25C121.688 89.25 117.812 90 114.438 91.5C111.062 93 107.604 95.125 104.062 97.875L98.5 90.875C100.917 88.8333 103.542 87.0208 106.375 85.4375C109.25 83.8542 112.312 82.6042 115.562 81.6875C118.854 80.7708 122.354 80.3125 126.062 80.3125C131.688 80.3125 136.542 81.2917 140.625 83.25C144.708 85.2083 147.854 88 150.062 91.625C152.312 95.25 153.438 99.5625 153.438 104.562C153.438 109.396 152.479 113.896 150.562 118.062C148.646 122.188 145.958 126.292 142.5 130.375C139.042 134.417 135 138.708 130.375 143.25L110.5 163.062V163.5H157.188V173Z" fill="#111111"/>
</svg>
